# xmcd CD database file
# Copyright (C) 1997 Ti Kan
#
# Track frame offsets:
#  150
#  23000
#  42700
#  61575
#  81075
#  100200
#  118925
#  143667
#  164420
#  185177
#  211455
#  232730
#  250950
#  274505
#
# Disc length: 3938 seconds
#
# Revision: 1
# Processed by: cddbd v1.4b41PL1 Copyright (c) Steve Scherf et al.
# Submitted via: CDWizzard Release:4.23
#
DISCID=c10f600e
DTITLE=Kenny G - Montage Disk 1
DYEAR=1900
DGENRE=
TTITLE0=Songbird
TTITLE1=Sade
TTITLE2=Tradewinds
TTITLE3=We've Saved The Best For Last
TTITLE4=Going Home
TTITLE5=Midnight Motion
TTITLE6=Silhouette
TTITLE7=Tribeca
TTITLE8=Uncle Al
TTITLE9=Let Go
TTITLE10=Against The Doctor's Orders
TTITLE11=Theme From Dying Young
TTITLE12=Natural Rides
TTITLE13=Jasmine Flower
EXTD=
EXTT0=
EXTT1=
EXTT2=
EXTT3=
EXTT4=
EXTT5=
EXTT6=
EXTT7=
EXTT8=
EXTT9=
EXTT10=
EXTT11=
EXTT12=
EXTT13=
PLAYORDER=
